<?xml version="1.0" standalone="no"?>
<!DOCTYPE svg PUBLIC "-//W3C//DTD SVG 20010904//EN"
 "http://www.w3.org/TR/2001/REC-SVG-20010904/DTD/svg10.dtd">
<svg version="1.0" xmlns="http://www.w3.org/2000/svg"
 width="301.000000pt" height="301.000000pt" viewBox="0 0 301.000000 301.000000"
 preserveAspectRatio="xMidYMid meet">
<metadata>
Created by potrace 1.11, written by Peter Selinger 2001-2013
</metadata>
<g transform="translate(0.000000,301.000000) scale(0.100000,-0.100000)"
fill="#000000" stroke="none">
<path d="M1307 2643 c18 -2 50 -2 70 0 21 2 7 4 -32 4 -38 0 -55 -2 -38 -4z"/>
<path d="M1204 2633 c-33 -6 -130 -94 -179 -161 -39 -54 -45 -68 -45 -112 0
-27 5 -50 10 -50 6 0 10 22 10 50 0 43 6 58 42 107 56 79 136 145 189 160 42
11 21 16 -27 6z"/>
<path d="M1470 2633 c8 -4 42 -16 75 -28 60 -22 171 -89 233 -142 31 -27 34
-34 52 -153 10 -69 19 -112 19 -97 1 16 -6 75 -15 133 l-17 105 -56 42 c-31
24 -74 54 -96 69 -41 26 -176 79 -198 77 -7 0 -5 -3 3 -6z"/>
<path d="M970 2200 c0 -36 7 -96 15 -134 8 -38 12 -73 9 -78 -11 -18 39 -203
62 -225 7 -7 20 -13 29 -13 9 0 24 -18 35 -42 11 -24 31 -63 45 -88 34 -60 32
-104 -9 -194 l-34 -75 -179 -90 c-250 -126 -338 -184 -369 -244 -15 -28 -184
-630 -184 -654 0 -11 196 -13 1080 -13 l1080 0 -1 28 c-2 23 -2 24 -6 5 l-4
-23 -1065 0 -1064 0 3 35 c1 19 6 35 11 35 4 0 6 9 3 20 -3 10 -1 20 4 22 5 2
10 18 12 36 1 17 6 32 11 32 4 0 6 9 3 20 -3 10 -1 20 3 22 5 2 10 17 12 33 2
17 6 33 11 36 4 3 9 20 10 37 1 18 6 32 11 32 4 0 6 9 3 20 -3 10 -1 20 4 22
5 2 10 18 12 36 1 17 6 32 11 32 4 0 6 9 3 20 -3 10 -1 20 4 22 5 2 10 18 12
36 1 17 5 32 8 32 3 0 11 17 17 38 22 74 146 160 416 287 l144 68 36 83 c49
112 47 139 -13 255 -40 76 -54 95 -74 97 -21 3 -27 13 -45 75 -33 112 -36 127
-22 127 11 0 8 17 -13 70 -5 14 -12 63 -14 110 -6 106 -22 142 -23 50z"/>
<path d="M1856 2065 c6 -120 -1 -149 -45 -197 -13 -16 -35 -28 -47 -28 -22 0
-23 -3 -26 -122 -2 -68 0 -127 3 -133 14 -23 27 -75 20 -75 -5 0 -12 12 -16
28 l-7 27 -15 -30 c-24 -46 -49 -71 -171 -163 l-113 -85 34 -36 c19 -20 54
-63 78 -96 60 -83 120 -155 128 -155 4 0 36 57 71 126 59 117 64 130 64 193 1
44 -4 74 -13 84 -8 10 -9 17 -3 17 6 0 13 -9 17 -20 3 -11 45 -41 98 -71 248
-139 471 -289 510 -342 27 -37 53 -118 63 -195 4 -28 11 -52 16 -52 6 0 8 12
4 27 -3 16 -8 39 -10 53 -8 51 -17 85 -27 96 -5 6 -7 13 -4 16 14 14 -68 108
-140 160 -72 53 -325 209 -432 268 -24 13 -43 28 -43 32 0 5 -4 7 -8 4 -10 -6
-33 39 -68 133 -20 53 -24 81 -24 177 0 105 1 114 19 114 26 0 77 61 91 108 9
27 9 66 2 142 l-11 105 5 -110z"/>
<path d="M1760 1790 c0 -11 2 -20 4 -20 2 0 6 9 9 20 3 11 1 20 -4 20 -5 0 -9
-9 -9 -20z"/>
<path d="M1174 1395 c-15 -36 -34 -70 -42 -74 -28 -16 -27 -109 2 -222 15 -57
28 -105 30 -106 2 -2 25 38 52 89 45 86 110 166 159 195 19 12 19 13 -10 34
-16 12 -58 51 -93 86 -35 35 -65 63 -66 63 -2 0 -16 -29 -32 -65z"/>
<path d="M1375 1258 c-31 -17 -74 -60 -96 -95 l-20 -32 41 -58 41 -58 -41
-300 c-22 -165 -40 -308 -40 -317 0 -16 12 -18 110 -18 61 0 110 3 111 8 0 4
2 16 4 27 2 11 -9 150 -26 308 l-30 288 21 34 c11 18 36 47 55 64 19 17 35 34
35 39 0 4 -23 34 -51 65 -52 58 -74 67 -114 45z"/>
<path d="M2500 701 c0 -17 5 -31 10 -31 6 0 10 11 10 24 0 14 -4 28 -10 31 -6
4 -10 -7 -10 -24z"/>
<path d="M2510 625 c0 -22 4 -34 10 -30 6 3 10 17 10 30 0 13 -4 27 -10 30 -6
4 -10 -8 -10 -30z"/>
<path d="M2520 548 c0 -21 5 -38 10 -38 13 0 13 40 0 60 -7 11 -10 5 -10 -22z"/>
<path d="M2531 463 c-1 -24 4 -43 9 -43 12 0 12 37 0 65 -7 15 -9 10 -9 -22z"/>
</g>
</svg>
